<?xml version="1.0" encoding="UTF-8" standalone="no"?>
<!-- Created with Inkscape (http://www.inkscape.org/) -->

<svg
   width="256"
   height="256"
   viewBox="0 0 256 256.00001"
   version="1.1"
   id="svg1"
   inkscape:version="1.3.1 (9b9bdc1480, 2023-11-25, custom)"
   sodipodi:docname="hook.svg"
   xmlns:inkscape="http://www.inkscape.org/namespaces/inkscape"
   xmlns:sodipodi="http://sodipodi.sourceforge.net/DTD/sodipodi-0.dtd"
   xmlns="http://www.w3.org/2000/svg"
   xmlns:svg="http://www.w3.org/2000/svg">
  <sodipodi:namedview
     id="namedview1"
     pagecolor="#ffffff"
     bordercolor="#000000"
     borderopacity="0.25"
     inkscape:showpageshadow="2"
     inkscape:pageopacity="0.0"
     inkscape:pagecheckerboard="true"
     inkscape:deskcolor="#d1d1d1"
     inkscape:document-units="px"
     inkscape:zoom="2.8284271"
     inkscape:cx="311.65731"
     inkscape:cy="223.97607"
     inkscape:window-width="2560"
     inkscape:window-height="1403"
     inkscape:window-x="0"
     inkscape:window-y="0"
     inkscape:window-maximized="1"
     inkscape:current-layer="layer1" />
  <defs
     id="defs1" />
  <g
     inkscape:label="Layer 1"
     inkscape:groupmode="layer"
     id="layer1">
    <rect
       style="fill:#ffffff;stroke-width:33.732"
       id="rect1"
       width="256"
       height="64"
       x="0"
       y="192" />
    <path
       id="path12"
       style="color:#000000;fill:#000000;-inkscape-stroke:none"
       d="m 208.07422,13.078125 c -20.84458,0 -37.87109,17.026513 -37.8711,37.871094 0,14.815163 8.60466,27.69478 21.06446,33.910156 -0.58037,1.819542 -13.0597,40.665885 -33.38477,77.521485 -10.40529,18.86799 -22.85415,36.98191 -36.15039,48.78711 -13.29623,11.80519 -26.529197,17.16427 -40.742186,12.98828 -15.281107,-4.48982 -23.037461,-12.07929 -27.267578,-21.23242 -4.230116,-9.15314 -7.050775,-43.32871 1.905661,-50.02882 9.282704,-6.9442 15.752687,-6.59166 15.752687,-6.59166 L 54.675781,123.01758 c 0,0 -12.228724,21.74421 -15.886719,46.72461 -1.828996,12.49019 -1.583588,26.0443 4.041016,38.21484 5.624605,12.17054 16.879961,22.45242 34.777344,27.71094 18.965506,5.57234 37.059398,-2.18068 52.091798,-15.52735 15.03239,-13.34665 27.91444,-32.42286 38.6914,-51.96484 21.09036,-38.24329 33.78949,-78.024862 34.33399,-79.742186 1.74891,0.249614 3.53404,0.386718 5.34961,0.386718 20.84458,0 37.87109,-17.026512 37.87109,-37.871093 0,-20.844581 -17.02651,-37.871094 -37.87109,-37.871094 z m 0,12 c 14.35931,0 25.87109,11.511781 25.87109,25.871094 0,14.359312 -11.51178,25.871093 -25.87109,25.871093 -14.35932,0 -25.87109,-11.511781 -25.8711,-25.871093 0,-14.359313 11.51178,-25.871094 25.8711,-25.871094 z"
       sodipodi:nodetypes="sscsssssccssssscssssssss" />
    <path
       style="fill:#000000;fill-opacity:1;stroke:#ffffff;stroke-width:1.56699;stroke-dasharray:none;stroke-opacity:1"
       id="path15"
       d="m 217.15116,30.928156 c 1.4775,-5.733872 3.47104,-11.320192 5.88397,-16.722799 2.51519,-4.8649806 5.9298,-9.2127846 9.76152,-13.1105886 2.65166,-2.697397 5.19581,-4.838739 8.04001,-7.339717 6.26774,-5.1054904 12.80889,-9.8603574 19.26479,-14.7222564 3.31436,-2.453046 6.55494,-4.99938 9.89357,-7.419689 3.38966,-2.459279 -0.0882,-7.252992 -3.47794,-4.793715 v 0 c -3.36534,2.443487 -6.63784,5.00582 -9.97851,7.482475 -6.57592,4.952418 -13.241,9.793229 -19.61463,15.007227 -3.12882,2.7557414 -5.5994,4.8265854 -8.51283,7.8053764 -4.26255,4.358178 -8.02537,9.236772 -10.78736,14.6840726 -2.53161,5.713513 -4.66067,11.603157 -6.21069,17.663311 -1.03683,4.057446 4.70127,5.523749 5.7381,1.466303 z" />
    <path
       style="fill:#000000;fill-opacity:1;stroke:#ffffff;stroke-width:1.56699;stroke-dasharray:none;stroke-opacity:1"
       id="path15-7"
       d="m 223.86856,33.459793 c 1.4775,-5.733872 3.47104,-11.320192 5.88397,-16.722799 0.16222,-4.769103 -4.79876,-3.837212 -5.41138,-2.406815 -2.53161,5.713513 -4.66067,11.603157 -6.21069,17.663311 -1.03683,4.057446 4.70127,5.523749 5.7381,1.466303 z"
       sodipodi:nodetypes="ccccc" />
  </g>
  <rect
     style="fill:#ffffff;stroke-width:13.8638"
     id="rect1-2"
     width="104.60182"
     height="26.458429"
     x="91.081398"
     y="192" />
  <path
     style="fill:#ffffff;fill-opacity:1;stroke:none;stroke-width:16.6146;stroke-dasharray:none;stroke-opacity:1"
     id="path14"
     d="m 108.12005,218.48459 c 0.0256,0.002 0.0487,0.0105 0.0776,0.006 0.23354,-0.0352 0.47083,-0.0866 0.70499,-0.12425 0.52022,-0.0836 1.70428,-0.25473 2.18596,-0.30981 1.03116,-0.11787 1.27481,-0.11315 2.28925,-0.1641 0.39591,0.009 0.8007,0.003 1.18775,0.028 1.05979,0.0667 2.20403,0.23785 3.18414,0.39529 1.01372,0.16285 3.48545,0.60531 4.41937,0.80724 0.75547,0.16335 1.48368,0.35873 2.22549,0.53811 1.74535,0.59761 2.18152,0.61509 3.49178,1.56517 1.05972,0.76843 1.73738,1.60177 2.45883,2.58371 0.35164,0.4786 0.68048,0.97016 0.98276,1.47511 0.2686,0.44869 0.48604,0.92292 0.72903,1.38438 0.12688,0.42005 0.31485,0.81724 0.38059,1.26014 0.10673,0.71824 -0.07,1.70042 -0.32053,2.49212 -0.2921,0.9231 -0.81544,2.02964 -1.38711,2.96021 -0.31185,0.50764 -0.69747,1.009 -1.04618,1.5135 -1.30086,1.73016 -2.83569,3.41649 -4.59305,5.01743 -0.72477,0.66044 -1.11467,0.97182 -1.86279,1.5941 -0.93195,0.74081 -1.87833,1.4715 -2.75674,2.24204 -0.0128,0.009 -0.0247,0.0189 -0.0372,0.0284 -3.48553,2.89588 0.55109,5.09732 4.03666,2.20145 v 0 c 0.0791,-0.0661 0.15731,-0.13305 0.23681,-0.19895 0.81522,-0.71864 1.71961,-1.38571 2.57213,-2.08402 0.93658,-0.78323 1.38632,-1.14301 2.29702,-1.97986 2.17393,-1.99757 4.07005,-4.10045 5.65917,-6.25798 0.46014,-0.69006 0.97032,-1.37671 1.38042,-2.0702 1.20387,-2.03584 2.04228,-4.21062 2.17185,-6.13601 0.11775,-1.74838 -0.15011,-2.0463 -0.64996,-3.55726 -0.28583,-0.53288 -0.54258,-1.0804 -0.85754,-1.59868 -0.6365,-1.04752 -1.70297,-2.53101 -2.59262,-3.41261 -1.1688,-1.15825 -2.32497,-1.98028 -4.03979,-2.72169 -0.7337,-0.31722 -1.57964,-0.52576 -2.36946,-0.78862 -0.8233,-0.19691 -1.63256,-0.41033 -2.4698,-0.59072 -0.98204,-0.21161 -3.63105,-0.68581 -4.68289,-0.8512 -1.32255,-0.20792 -2.59886,-0.38947 -4.01415,-0.45916 -0.5609,-0.0277 -1.14651,-0.0117 -1.7198,-0.0176 -0.50442,0.0284 -1.00432,0.0457 -1.51322,0.0849 -1.01652,0.0784 -1.75772,0.17481 -2.78629,0.32356 -0.70301,0.10176 -1.69811,0.25239 -2.42744,0.41142 -0.33959,0.0741 -0.68143,0.17169 -1.02213,0.25751 -4.49251,1.47831 -4.01535,5.63134 0.47712,4.15306 z" />
</svg>
